<mxfile host="app.diagrams.net" modified="2024-01-19T00:27:18.681Z" agent="Mozilla/5.0 (Windows NT 10.0; Win64; x64) AppleWebKit/537.36 (KHTML, like Gecko) Chrome/120.0.0.0 Safari/537.36" version="22.1.21" etag="TqvsRXafRDsi8gCUPtXX" type="github">
  <diagram name="PÃ¡gina-1" id="2e8ID9KqtwJ4ZNV0Snm_">
    <mxGraphModel>
      <root>
        <mxCell id="0" />
        <mxCell id="1" parent="0" />
      </root>
    </mxGraphModel>
  </diagram>
</mxfile>
